# xmcd CD database file
#
# Track frame offsets:
#	150
#	14081
#	27743
#	41234
#	55636
#	71236
#	83940
#	96275
#	107800
#	121683
#	134461
#	146997
#	161466
#	172907
#	186430
#	198914
#	212588
#	227177
#	241054
#	252387
#
# Disc length: 3651 seconds
#
# Revision: 0
# Processed by: cddbd v1.5.2PL0 Copyright (c) Steve Scherf et al.
# Submitted via: CDex 1.70beta2
#
DISCID=280e4114
DTITLE=Django Reinhardt - The Absolutely Essential Disc3
DYEAR=2010
DGENRE=Jazz
TTITLE0=I´se A-Muggin´
TTITLE1=Daphne
TTITLE2=Appel Indirect
TTITLE3=The Man I Love
TTITLE4=Manoir De Mes Reves
TTITLE5=Why Shouldn´t I
TTITLE6=Swing 48
TTITLE7=Crazy Rhythm
TTITLE8=I´m Coming Virginia
TTITLE9=Nagasaki
TTITLE10=Echoes Of France
TTITLE11=When Day Is Done
TTITLE12=Belleville
TTITLE13=Low Cotton
TTITLE14=Brazil
TTITLE15=China Boy
TTITLE16=Jeepers Creepers
TTITLE17=I Don´t Mean A Thing
TTITLE18=I´ll See You In My Dreams
TTITLE19=Nuages
EXTD=YEAR: 2010
EXTT0=
EXTT1=
EXTT2=
EXTT3=
EXTT4=
EXTT5=
EXTT6=
EXTT7=
EXTT8=
EXTT9=
EXTT10=
EXTT11=
EXTT12=
EXTT13=
EXTT14=
EXTT15=
EXTT16=
EXTT17=
EXTT18=
EXTT19=
PLAYORDER=
